<?xml version="1.0" encoding="UTF-8" standalone="no"?>
<!DOCTYPE svg PUBLIC "-//W3C//DTD SVG 1.1//EN"
 "http://www.w3.org/Graphics/SVG/1.1/DTD/svg11.dtd">
<!-- Generated by graphviz version 2.43.0 (0)
 -->
<!-- Title: ast Pages: 1 -->
<svg width="722pt" height="476pt"
 viewBox="0.00 0.00 722.00 476.00" xmlns="http://www.w3.org/2000/svg" xmlns:xlink="http://www.w3.org/1999/xlink">
<g id="graph0" class="graph" transform="scale(1 1) rotate(0) translate(4 472)">
<title>ast</title>
<polygon fill="white" stroke="transparent" points="-4,4 -4,-472 718,-472 718,4 -4,4"/>
<!-- N2 -->
<g id="node1" class="node">
<title>N2</title>
<polygon fill="none" stroke="black" points="54,-252 0,-252 0,-216 54,-216 54,-252"/>
<text text-anchor="middle" x="27" y="-230.3" font-family="Times,serif" font-size="14.00">a</text>
</g>
<!-- N3 -->
<g id="node2" class="node">
<title>N3</title>
<polygon fill="none" stroke="black" points="180,-252 126,-252 126,-216 180,-216 180,-252"/>
<text text-anchor="middle" x="153" y="-230.3" font-family="Times,serif" font-size="14.00">0</text>
</g>
<!-- N4 -->
<g id="node3" class="node">
<title>N4</title>
<polygon fill="none" stroke="black" points="306,-252 252,-252 252,-216 306,-216 306,-252"/>
<text text-anchor="middle" x="279" y="-230.3" font-family="Times,serif" font-size="14.00">0</text>
</g>
<!-- N6 -->
<g id="node4" class="node">
<title>N6</title>
<polygon fill="none" stroke="black" points="243,-144 189,-144 189,-108 243,-108 243,-144"/>
<text text-anchor="middle" x="216" y="-122.3" font-family="Times,serif" font-size="14.00">a</text>
</g>
<!-- N7 -->
<g id="node5" class="node">
<title>N7</title>
<polygon fill="none" stroke="black" points="369,-144 315,-144 315,-108 369,-108 369,-144"/>
<text text-anchor="middle" x="342" y="-122.3" font-family="Times,serif" font-size="14.00">0</text>
</g>
<!-- N8 -->
<g id="node6" class="node">
<title>N8</title>
<polygon fill="none" stroke="black" points="495,-144 441,-144 441,-108 495,-108 495,-144"/>
<text text-anchor="middle" x="468" y="-122.3" font-family="Times,serif" font-size="14.00">0</text>
</g>
<!-- N9 -->
<g id="node7" class="node">
<title>N9</title>
<polygon fill="none" stroke="black" points="676.5,-144 567.5,-144 567.5,-108 676.5,-108 676.5,-144"/>
<text text-anchor="middle" x="622" y="-122.3" font-family="Times,serif" font-size="14.00">Assignement</text>
</g>
<!-- N10 -->
<g id="node8" class="node">
<title>N10</title>
<polygon fill="none" stroke="black" points="587.5,-36 528.5,-36 528.5,0 587.5,0 587.5,-36"/>
<text text-anchor="middle" x="558" y="-14.3" font-family="Times,serif" font-size="14.00">lvalue</text>
</g>
<!-- N9&#45;&gt;N10 -->
<g id="edge1" class="edge">
<title>N9&#45;&gt;N10</title>
<path fill="none" stroke="black" d="M611.72,-107.97C601.47,-90.99 585.59,-64.7 573.75,-45.09"/>
<polygon fill="black" stroke="black" points="576.63,-43.09 568.47,-36.34 570.64,-46.71 576.63,-43.09"/>
</g>
<!-- N11 -->
<g id="node9" class="node">
<title>N11</title>
<polygon fill="none" stroke="black" points="714,-36 660,-36 660,0 714,0 714,-36"/>
<text text-anchor="middle" x="687" y="-14.3" font-family="Times,serif" font-size="14.00">5</text>
</g>
<!-- N9&#45;&gt;N11 -->
<g id="edge2" class="edge">
<title>N9&#45;&gt;N11</title>
<path fill="none" stroke="black" d="M632.44,-107.97C642.85,-90.99 658.98,-64.7 671,-45.09"/>
<polygon fill="black" stroke="black" points="674.12,-46.7 676.37,-36.34 668.16,-43.04 674.12,-46.7"/>
</g>
<!-- N5 -->
<g id="node10" class="node">
<title>N5</title>
<polygon fill="none" stroke="black" points="432,-252 378,-252 378,-216 432,-216 432,-252"/>
<text text-anchor="middle" x="405" y="-230.3" font-family="Times,serif" font-size="14.00">For</text>
</g>
<!-- N5&#45;&gt;N6 -->
<g id="edge3" class="edge">
<title>N5&#45;&gt;N6</title>
<path fill="none" stroke="black" d="M377.92,-217.81C344.8,-199.24 288.62,-167.73 251.92,-147.14"/>
<polygon fill="black" stroke="black" points="253.46,-144 243.03,-142.16 250.04,-150.1 253.46,-144"/>
</g>
<!-- N5&#45;&gt;N7 -->
<g id="edge4" class="edge">
<title>N5&#45;&gt;N7</title>
<path fill="none" stroke="black" d="M394.88,-215.97C384.79,-198.99 369.16,-172.7 357.51,-153.09"/>
<polygon fill="black" stroke="black" points="360.42,-151.15 352.31,-144.34 354.41,-154.73 360.42,-151.15"/>
</g>
<!-- N5&#45;&gt;N8 -->
<g id="edge5" class="edge">
<title>N5&#45;&gt;N8</title>
<path fill="none" stroke="black" d="M415.12,-215.97C425.21,-198.99 440.84,-172.7 452.49,-153.09"/>
<polygon fill="black" stroke="black" points="455.59,-154.73 457.69,-144.34 449.58,-151.15 455.59,-154.73"/>
</g>
<!-- N5&#45;&gt;N9 -->
<g id="edge6" class="edge">
<title>N5&#45;&gt;N9</title>
<path fill="none" stroke="black" d="M432.04,-219.79C468.56,-201.95 534.09,-169.94 577.81,-148.58"/>
<polygon fill="black" stroke="black" points="579.62,-151.6 587.07,-144.06 576.54,-145.31 579.62,-151.6"/>
</g>
<!-- N1 -->
<g id="node11" class="node">
<title>N1</title>
<polygon fill="none" stroke="black" points="243,-360 189,-360 189,-324 243,-324 243,-360"/>
<text text-anchor="middle" x="216" y="-338.3" font-family="Times,serif" font-size="14.00">For</text>
</g>
<!-- N1&#45;&gt;N2 -->
<g id="edge7" class="edge">
<title>N1&#45;&gt;N2</title>
<path fill="none" stroke="black" d="M188.92,-325.81C155.8,-307.24 99.62,-275.73 62.92,-255.14"/>
<polygon fill="black" stroke="black" points="64.46,-252 54.03,-250.16 61.04,-258.1 64.46,-252"/>
</g>
<!-- N1&#45;&gt;N3 -->
<g id="edge8" class="edge">
<title>N1&#45;&gt;N3</title>
<path fill="none" stroke="black" d="M205.88,-323.97C195.79,-306.99 180.16,-280.7 168.51,-261.09"/>
<polygon fill="black" stroke="black" points="171.42,-259.15 163.31,-252.34 165.41,-262.73 171.42,-259.15"/>
</g>
<!-- N1&#45;&gt;N4 -->
<g id="edge9" class="edge">
<title>N1&#45;&gt;N4</title>
<path fill="none" stroke="black" d="M226.12,-323.97C236.21,-306.99 251.84,-280.7 263.49,-261.09"/>
<polygon fill="black" stroke="black" points="266.59,-262.73 268.69,-252.34 260.58,-259.15 266.59,-262.73"/>
</g>
<!-- N1&#45;&gt;N5 -->
<g id="edge10" class="edge">
<title>N1&#45;&gt;N5</title>
<path fill="none" stroke="black" d="M243.08,-325.81C276.2,-307.24 332.38,-275.73 369.08,-255.14"/>
<polygon fill="black" stroke="black" points="370.96,-258.1 377.97,-250.16 367.54,-252 370.96,-258.1"/>
</g>
<!-- N0 -->
<g id="node12" class="node">
<title>N0</title>
<polygon fill="none" stroke="black" points="255.5,-468 176.5,-468 176.5,-432 255.5,-432 255.5,-468"/>
<text text-anchor="middle" x="216" y="-446.3" font-family="Times,serif" font-size="14.00">Program</text>
</g>
<!-- N0&#45;&gt;N1 -->
<g id="edge11" class="edge">
<title>N0&#45;&gt;N1</title>
<path fill="none" stroke="black" d="M216,-431.97C216,-415.38 216,-389.88 216,-370.43"/>
<polygon fill="black" stroke="black" points="219.5,-370.34 216,-360.34 212.5,-370.34 219.5,-370.34"/>
</g>
</g>
</svg>
